PathFileType	4	(X/Y/Z)	G:\マイドライブ\biomec\experimentalData\240725\static1.trc
DataRate	CameraRate	NumFrames	NumMarkers	Units	OrigDataRate	OrigDataStartFrame	OrigNumFrames
200.00	200.00	       6	52	mm	200.00	1	       834
Frame#	Time	handR			wrRI			wrRO			elbRI			elbRO			shRF			shRU			shRB			handL			wrLI			wrLO			elbLI			elbLO			shLF			shLU			shLB			toeR			baRI			baRO			heelR			anRI			anRO			knRI			knRO			troR			toeL			baLI			baLO			heelL			anLI			anLO			knLI			knLO			troL			head			earR			earL			clav			c7			ribR			ribL			xiph			ASISR			ASISL			PSISR			PSISL			t8			t11			L1			L3			LS			COX			
		X1	Y1	Z1	X2	Y2	Z2	X3	Y3	Z3	X4	Y4	Z4	X5	Y5	Z5	X6	Y6	Z6	X7	Y7	Z7	X8	Y8	Z8	X9	Y9	Z9	X10	Y10	Z10	X11	Y11	Z11	X12	Y12	Z12	X13	Y13	Z13	X14	Y14	Z14	X15	Y15	Z15	X16	Y16	Z16	X17	Y17	Z17	X18	Y18	Z18	X19	Y19	Z19	X20	Y20	Z20	X21	Y21	Z21	X22	Y22	Z22	X23	Y23	Z23	X24	Y24	Z24	X25	Y25	Z25	X26	Y26	Z26	X27	Y27	Z27	X28	Y28	Z28	X29	Y29	Z29	X30	Y30	Z30	X31	Y31	Z31	X32	Y32	Z32	X33	Y33	Z33	X34	Y34	Z34	X35	Y35	Z35	X36	Y36	Z36	X37	Y37	Z37	X38	Y38	Z38	X39	Y39	Z39	X40	Y40	Z40	X41	Y41	Z41	X42	Y42	Z42	X43	Y43	Z43	X44	Y44	Z44	X45	Y45	Z45	X46	Y46	Z46	X47	Y47	Z47	X48	Y48	Z48	X49	Y49	Z49	X50	Y50	Z50	X51	Y51	Z51	X52	Y52	Z52	

1	0.000	483.97195	292.16785	993.59448	484.97217	381.37946	1023.01288	525.62085	347.58566	1066.06726	568.03333	573.75092	1157.99243	510.13956	550.06665	1188.43054	602.76471	719.80109	1416.95215	541.06464	699.66217	1436.88367	497.30875	710.04974	1392.55994	501.82620	1461.84094	964.65253	497.51010	1373.26379	1001.17987	533.34808	1423.00757	1042.42554	544.16193	1195.16772	1148.40186	497.97061	1229.93237	1185.01428	599.85864	1045.44897	1404.99939	541.44196	1068.61609	1425.85242	490.79010	1043.05823	1379.22156	725.69281	730.24408	51.43704	643.41589	772.69873	48.18667	624.74951	651.85034	43.93200	438.70160	729.40674	40.16905	521.44788	770.57123	112.91202	506.61664	677.16925	102.03983	527.22015	795.47253	468.43759	548.44501	691.45428	476.37091	593.77704	707.32904	868.91687	725.69690	1024.84595	53.09196	650.06378	978.01672	51.03982	627.05573	1092.21997	47.38858	438.04938	1031.78833	38.08350	527.85217	985.62640	130.53300	504.13901	1073.36267	104.85409	518.45142	959.96460	471.12097	524.28687	1066.95435	483.96701	570.99500	1052.07825	853.74017	528.75812	885.66571	1702.92725	634.92975	802.13745	1568.46606	640.12781	960.31879	1568.87256	647.90399	886.52875	1394.15430	526.78772	888.73633	1471.43933	631.59503	777.13641	1095.49292	627.18884	998.57318	1093.19214	678.15497	885.92029	1234.90015	654.29388	777.78101	950.67169	643.23633	998.54120	958.76636	480.53372	818.45526	999.35651	477.32651	941.96704	1000.40363	462.70453	886.71442	1261.86292	477.72043	886.90723	1137.73157	488.32846	888.79053	1080.59424	484.75629	883.97705	1034.12097	467.67355	881.49170	996.17188	437.38269	878.93195	894.21820	
2	0.005	483.99908	292.12378	993.69055	484.99463	381.31815	1023.07288	525.61554	347.55423	1066.15796	568.03107	573.72406	1158.03516	509.65872	550.04797	1188.39844	602.76611	719.82550	1416.97949	541.08350	699.68066	1436.92151	497.30618	710.06763	1392.58398	501.85306	1461.82690	964.60376	497.53064	1373.22925	1001.13361	533.36566	1423.00281	1042.38562	544.16913	1195.15356	1148.36548	497.96704	1229.92896	1184.97156	599.85883	1045.46387	1404.97900	541.42023	1068.64331	1425.82825	490.78262	1043.06860	1379.20471	725.70087	730.25873	51.42814	643.40851	772.69788	48.20604	624.74854	651.85034	43.95295	438.66513	729.40973	40.17889	521.43353	770.57422	112.89829	506.61414	677.18256	102.03881	527.20001	795.46851	468.43790	548.43030	691.46362	476.36456	593.77264	707.31543	868.92517	725.69312	1024.86060	53.08701	649.86572	978.24597	50.79752	627.07013	1092.19983	47.37965	438.06403	1031.77856	38.07730	527.48633	985.68207	130.12512	504.10641	1073.35852	104.87826	518.44592	959.96973	471.13907	524.27216	1066.95508	483.98987	570.98224	1052.06775	853.73535	528.76453	885.72430	1702.92627	634.92896	802.17798	1568.47998	640.08997	960.34186	1568.89124	647.88336	886.55487	1394.13208	526.81091	888.75720	1471.42102	631.57697	777.15131	1095.51721	627.14764	998.55707	1093.17188	678.12848	885.91974	1234.88635	654.29492	777.77136	950.67889	643.26416	998.53198	958.78949	480.53311	818.44092	999.35406	477.35709	941.96637	1000.38556	462.70633	886.70251	1261.86060	477.67056	886.90753	1137.75720	488.49838	888.66968	1080.35779	484.74838	883.97833	1034.11194	467.65158	881.50427	996.16833	437.40417	878.91980	894.20282	
3	0.010	484.02017	292.07324	993.79242	484.99963	381.26352	1023.17950	525.63940	347.50531	1066.25488	568.04181	573.70520	1158.06116	509.65231	550.04230	1188.45178	602.85065	720.81781	1417.11658	541.11450	699.77606	1437.02014	497.31284	710.08185	1392.60986	501.88568	1461.82898	964.55493	497.54178	1373.21509	1001.08087	533.38416	1422.98389	1042.32776	544.14465	1195.15466	1148.33313	497.97449	1229.92798	1184.92017	599.89636	1045.48511	1404.93750	541.43677	1068.66699	1425.80701	490.81363	1043.06714	1379.16785	725.70026	730.24799	51.42643	643.40674	772.71686	48.20524	624.74255	651.84192	43.95236	438.67264	729.39459	40.16862	521.44354	770.54926	112.94056	506.60419	677.17493	102.04240	527.20386	795.47504	468.44446	548.44861	691.45453	476.36688	593.75281	707.29321	868.93793	725.69812	1024.84534	53.08870	649.83447	978.25415	50.77251	627.04901	1092.20532	47.39651	438.04001	1031.77063	38.07676	527.47748	985.68231	130.12929	504.09991	1073.35986	104.87750	518.45569	959.96002	471.13196	524.26874	1066.95093	483.97943	570.98969	1052.03882	853.72321	528.77527	885.75671	1702.92200	634.94946	802.21149	1568.48730	640.14392	960.36023	1568.85938	647.89349	886.57257	1394.14026	526.78967	888.78058	1471.46167	631.55273	777.13580	1095.49329	627.12628	998.54559	1093.16370	678.10944	885.92041	1234.87842	654.29254	777.75342	950.68469	643.23010	998.52216	958.76361	480.51572	818.42389	999.36139	477.33191	941.94958	1000.39447	462.74142	886.70020	1261.87231	477.68253	886.90759	1137.74719	488.50217	888.65588	1080.35291	484.72852	883.95410	1034.11768	467.64740	881.48657	996.14838	437.38702	878.92639	894.19489	
4	0.015	484.04471	292.02350	993.88959	485.00885	381.21002	1023.26349	525.67047	347.47083	1066.33911	568.04932	573.67175	1158.10046	509.66306	550.02057	1188.51709	602.81390	719.85571	1417.00085	541.13519	699.70618	1436.97070	497.34961	710.08606	1392.62756	501.89090	1461.81018	964.51733	497.57089	1373.19958	1001.02545	533.41541	1422.97656	1042.27820	544.12897	1195.13171	1148.29553	497.96677	1229.91577	1184.88647	599.89349	1045.46704	1404.89490	541.45862	1068.68713	1425.77319	490.78641	1043.07202	1379.14868	725.69891	730.24316	51.43862	643.41528	772.70880	48.19915	624.73553	651.85242	43.93593	438.67505	729.38702	40.17137	521.41528	770.57776	112.90954	506.61407	677.16028	102.02547	527.20648	795.45544	468.44272	548.42786	691.44073	476.36707	593.74158	707.28577	868.93384	725.68854	1024.83398	53.08526	649.84723	978.25464	50.80496	627.01733	1092.22510	47.42803	438.05316	1031.79309	38.09034	527.48645	985.68713	130.12363	504.15060	1073.35278	104.87221	518.47559	959.95294	471.13693	524.27509	1066.93457	483.97937	571.01178	1052.02222	853.73169	528.78149	885.81018	1702.90759	634.95856	802.23621	1568.47620	640.12964	960.39612	1568.87073	647.91901	886.54315	1394.11792	526.82031	888.79736	1471.44910	631.55029	777.13214	1095.52710	627.11700	998.51984	1093.15027	678.11255	885.92432	1234.86145	654.28284	777.75000	950.68713	643.24048	998.49506	958.76544	480.51779	818.41003	999.36438	477.33765	941.94171	1000.37170	462.73083	886.69305	1261.87817	477.68933	886.88232	1137.75061	488.45258	888.64563	1080.38330	484.72083	883.94244	1034.12207	467.62793	881.48248	996.14368	437.36914	878.90778	894.19727	
5	0.020	484.08795	291.95428	993.99658	485.01758	381.14655	1023.35608	525.68585	347.42935	1066.42883	568.06323	573.64514	1158.12329	510.14761	550.00757	1188.63672	602.89233	720.83032	1417.14221	541.18585	699.80170	1437.07117	497.35489	710.08936	1392.67004	501.93301	1461.81982	964.45453	497.60477	1373.16309	1000.95508	533.45148	1422.96106	1042.22742	544.16119	1195.12634	1148.26123	497.96835	1229.91235	1184.84631	599.90900	1045.47913	1404.86829	541.43628	1068.68970	1425.73828	490.81149	1043.09546	1379.11414	725.69897	730.24896	51.45623	643.40680	772.69238	48.20217	624.74811	651.84338	43.94059	438.70834	729.39532	40.18383	521.41937	770.55981	112.88168	506.60797	677.17657	102.03381	527.20038	795.44830	468.44785	548.44525	691.43311	476.37579	593.74554	707.27155	868.93549	725.68958	1024.83301	53.08478	649.85297	978.25067	50.79020	627.03839	1092.21497	47.41790	438.04352	1031.77722	38.07616	527.47803	985.67053	130.13583	504.10013	1073.34119	104.87987	518.45447	959.94019	471.12607	524.30164	1066.92114	483.95480	571.03180	1052.00378	853.70642	528.80988	885.85522	1702.89893	634.98395	802.26538	1568.47498	640.10883	960.38586	1568.86316	647.93799	886.57129	1394.05200	526.83600	888.82153	1471.43164	631.52893	777.12598	1095.52832	627.11273	998.49963	1093.12830	678.09967	885.90338	1234.82349	654.29028	777.73010	950.68219	643.23401	998.49036	958.75043	480.49887	818.40900	999.37268	477.34045	941.92523	1000.37103	462.73355	886.69641	1261.88928	477.68329	886.87384	1137.75171	488.28922	888.73639	1080.60034	484.73065	883.94110	1034.10730	467.63666	881.46710	996.15808	437.35977	878.90961	894.20728	
6	0.025	484.10855	291.91452	994.07697	485.00574	381.10904	1023.41663	525.70605	347.37769	1066.50842	568.06689	573.62506	1158.16931	509.67276	549.98669	1188.62329	602.89783	720.84454	1417.15271	541.20911	699.81635	1437.09534	497.35986	710.11060	1392.69580	501.94229	1461.80347	964.41626	497.64590	1373.16040	1000.90839	533.46356	1422.95215	1042.16956	544.16272	1195.10144	1148.22058	497.99084	1229.89600	1184.80847	599.91711	1045.47717	1404.85889	541.45837	1068.70081	1425.73743	490.80078	1043.09436	1379.08728	725.69141	730.25458	51.45345	643.38379	772.69769	48.22066	624.74341	651.85602	43.96670	438.68939	729.40198	40.16607	521.41296	770.57574	112.87016	506.60434	677.17023	102.04613	527.21393	795.43475	468.44125	548.43280	691.44080	476.37173	593.73914	707.25488	868.94519	725.69360	1024.84302	53.08955	650.08044	978.02441	51.03410	627.07153	1092.20471	47.38386	438.07037	1031.78308	38.08512	527.83124	985.61853	130.52817	504.12955	1073.33606	104.88208	518.45813	959.93903	471.13531	524.28278	1066.91968	483.96173	571.01453	1051.99536	853.69360	528.80334	885.90472	1702.90344	634.97650	802.33429	1568.47583	640.15869	960.41974	1568.82605	647.95691	886.58722	1394.05310	526.84595	888.84790	1471.44824	631.50714	777.10358	1095.50659	627.08435	998.50604	1093.11145	678.05164	885.91840	1234.81604	654.28210	777.72778	950.68597	643.22510	998.48309	958.74762	480.50903	818.39087	999.36566	477.31564	941.91962	1000.38916	462.72012	886.68719	1261.89966	477.68802	886.86810	1137.74023	488.45590	888.61908	1080.35339	484.70221	883.94373	1034.11255	467.64285	881.45331	996.16058	437.34348	878.88867	894.19598	
